<svg id="Layer_1" data-name="Layer 1"
    xmlns="http://www.w3.org/2000/svg"
    xmlns:xlink="http://www.w3.org/1999/xlink" viewBox="0 0 471.1 103.94">
    <defs>
        <linearGradient id="astrox-text" x1="62.06" y1="155.72" x2="62.06" y2="212.24" gradientTransform="matrix(0.88, 0.08, -0.07, 0.8, 16.22, -14.76)" gradientUnits="userSpaceOnUse">
            <stop offset="0" stop-color="#fff"/>
            <stop offset="0" stop-color="#fdfdfd"/>
            <stop offset="0.23" stop-color="#b2b2b2"/>
            <stop offset="0.43" stop-color="#727272"/>
            <stop offset="0.62" stop-color="#414141"/>
            <stop offset="0.78" stop-color="#1e1e1e"/>
            <stop offset="0.91" stop-color="#080808"/>
            <stop offset="1"/>
        </linearGradient>
        <linearGradient id="astrox-text-2" x1="158.29" y1="153.82" x2="158.29" y2="210.34" xlink:href="#astrox-text"/>
        <linearGradient id="astrox-text-3" x1="506.58" y1="148.14" x2="506.58" y2="204.66" xlink:href="#astrox-text"/>
        <linearGradient id="astrox-text-4" x1="233.53" y1="152.35" x2="233.53" y2="208.87" gradientTransform="matrix(0.88, 0.08, -0.07, 0.8, 0.52, -103.1)" xlink:href="#astrox-text"/>
        <linearGradient id="astrox-text-5" x1="316.14" y1="149.68" x2="316.14" y2="206.2" xlink:href="#astrox-text"/>
        <linearGradient id="astrox-text-6" x1="410.24" y1="147.32" x2="410.24" y2="203.84" xlink:href="#astrox-text"/>
    </defs>
    <text x="-15.7" y="-88.34"/>
    <path d="M78.76,133.61l11.12,57.46-30,.25-2.12-18.44-10.5.1-1.21,18.47-30.35.26L23,128.52l25.43,2.32Q46.82,146,46.34,154.78l10.1-.09c-1.08-6.86-2.19-14.65-3.32-23.42Z" transform="translate(-15.7 -88.34)" style="fill:#fff"/>
    <path d="M85.58,133.71,60,131.37q-1.2-9.14-2.43-19.67Q56.22,122.37,55.28,131l-25.44-2.32L34.43,89l42.43-.37Z" transform="translate(-15.7 -88.34)" style="fill:url(#astrox-text)"/>
    <path d="M169.46,165.65q.28,10.28-2.47,15.52c-1.85,3.52-5.05,6.23-9.55,8.15a43.05,43.05,0,0,1-16.49,3,50.08,50.08,0,0,1-18.46-2.88q-7.72-3-10.74-8.16t-3.32-15.7l-.13-4.06,25-.22.15,5.34c.14,4.51.54,7.45,1.21,8.8a3.78,3.78,0,0,0,3.79,2c2,0,3.38-.49,4.14-1.4s1.1-2.83,1-5.75c-.11-4-.71-6.52-1.75-7.54s-6.66-4-16.66-8.86q-12.6-6.24-15.46-11.37a24,24,0,0,1-2.67-7.8l33.56,3.06q3.19,1.62,8.2,3.79,12.44,5.35,16.41,10.13C167.86,154.86,169.27,159.51,169.46,165.65Z" transform="translate(-15.7 -88.34)" style="fill:#fff"/>
    <path d="M139.87,121.57a6.5,6.5,0,0,0-1,4.29,19.7,19.7,0,0,0,.76,5.67c.42,1.2,1.65,2.51,3.67,3.93a34.88,34.88,0,0,0,4.16,2.39l-33.56-3.06a30,30,0,0,1-.43-4.46c-.2-6.73.62-11.68,2.49-14.89s5.09-5.71,9.71-7.48a46.46,46.46,0,0,1,16.21-2.75,50.84,50.84,0,0,1,15.71,2,25.35,25.35,0,0,1,10.07,5.52q3.56,3.47,4.37,6.44a43.13,43.13,0,0,1,1,9.31l.15,4.89-25,.22-.12-4.57c-.12-3.89-.44-6.34-.95-7.37s-1.77-1.55-3.71-1.53A4.28,4.28,0,0,0,139.87,121.57Z" transform="translate(-15.7 -88.34)" style="fill:url(#astrox-text-2)"/>
    <path d="M486.8,190.87l-27.19.23a293.6,293.6,0,0,1-8.3-29.48l27.4,2.5Z" transform="translate(-15.7 -88.34)" style="fill:#fff"/>
    <path d="M421.33,158.88l27.5,2.51q-.72,6.31-1.74,13.07l-2.27,16.77-28.58.26Z" transform="translate(-15.7 -88.34)" style="fill:#fff"/>
    <path d="M458.14,161.72c-.59-2.54-1.17-5.15-1.74-7.85-.2,2.49-.46,5-.74,7.63L428.16,159,432,134.23,420,88.91l28.37-.24c.61,2.81,1.76,7.52,3.48,14.1,1.39,5,2.52,9.64,3.43,13.87l5.44-28.08,24.6-.22-9,45.49,9.17,30.39Z" transform="translate(-15.7 -88.34)" style="fill:url(#astrox-text-3)"/>
    <path d="M228.62,176.53l.4,13.57-11.36.1a89.51,89.51,0,0,1-13.77-.61,15.48,15.48,0,0,1-7.35-3.3,11.43,11.43,0,0,1-4.08-6q-.86-3.39-1.24-15.95l-.69-23.23,28.31,2.58.68,22.69c.17,5.53.58,8.62,1.22,9.25S224,176.58,228.62,176.53Z" transform="translate(-15.7 -88.34)" style="fill:#fff"/>
    <polygon points="209.31 33.14 209.97 55.47 181.66 52.89 181.07 33.38 175 33.43 174.6 20.11 180.68 20.06 180.28 6.81 208.51 6.55 208.91 19.81 216.5 19.75 216.9 33.06 209.31 33.14" style="fill:url(#astrox-text-4)"/>
    <path d="M284.37,156.58l1,33.23-28.17.24L255.84,145l28.42,2.59C284.23,150,284.26,153,284.37,156.58Z" transform="translate(-15.7 -88.34)" style="fill:#fff"/>
    <path d="M307.16,133.71q-7.73.07-11.29,2a7.88,7.88,0,0,0-4.31,5.34,37.57,37.57,0,0,0-.48,6.62l-28.42-2.59L261.5,106l28.17-.25-.79,11.08q5.78-11.94,17.41-12.74Z" transform="translate(-15.7 -88.34)" style="fill:url(#astrox-text-5)"/>
    <path d="M391.45,155.47c.22,7.36-.05,12.77-.76,16.25a22.16,22.16,0,0,1-5.07,9.94,23.73,23.73,0,0,1-10.37,6.88,45.58,45.58,0,0,1-14.76,2.32,58.67,58.67,0,0,1-15.87-1.73,22.55,22.55,0,0,1-10.24-5.55,22.24,22.24,0,0,1-5.4-9.1q-1.69-5.34-2-16.06l-.26-8.85L355,152.14l.42,14.28c.13,4,.48,6.55,1.08,7.75a3.29,3.29,0,0,0,3.32,1.78c1.68,0,2.76-.56,3.26-1.67s.71-3.48.6-7.11l-.42-14.27Z" transform="translate(-15.7 -88.34)" style="fill:#fff"/>
    <path d="M398.27,155.58,370,153l-.73-24.54c-.14-4.32-.47-7-1-8.14s-1.65-1.67-3.34-1.66a3.32,3.32,0,0,0-3.29,1.71c-.52,1.14-.71,3.86-.59,8.17l.71,23.71-28.26-2.58L333.14,137q-.34-11.73,2.25-18.36a21.22,21.22,0,0,1,9.72-10.68q7.14-4,18.42-4.15a46.6,46.6,0,0,1,16.37,2.42,27.12,27.12,0,0,1,10.69,6.6,24,24,0,0,1,5.31,8.46q1.49,4.36,1.75,13.31l.62,20.61Z" transform="translate(-15.7 -88.34)" style="fill:url(#astrox-text-6)"/>
</svg>